<?xml version="1.0" encoding="UTF-8"?>
<svg xmlns="http://www.w3.org/2000/svg" class="img-svg replaced-svg" width="54.126" height="62.734" viewBox="0 0 480.001 480.001">
  <path d="M244.6,331H135.3c-4.5,0-8.1,3.6-8.1,8.1s3.6,8.1,8.1,8.1h109.3c4.5,0,8.1-3.6,8.1-8.1S249.1,331,244.6,331z" fill="#fff"></path>
  <path d="M214.2,297.1h-78.9c-4.5,0-8.1,3.6-8.1,8.1s3.6,8.1,8.1,8.1h78.9c4.5,0,8.1-3.6,8.1-8.1S218.7,297.1,214.2,297.1z" fill="#fff"></path>
  <path d="M183.8,263.3h-48.5c-4.5,0-8.1,3.6-8.1,8.1s3.6,8.1,8.1,8.1h48.5c4.5,0,8.1-3.6,8.1-8.1S188.3,263.3,183.8,263.3z" fill="#fff"></path>
  <path d="M375,329.4h-5.9c-4.5,0-8.1,3.6-8.1,8.1s3.6,8.1,8.1,8.1h5.9c4.5,0,8.1-3.6,8.1-8.1S379.5,329.4,375,329.4z" fill="#fff"></path>
  <path d="M275,364.8H135.3c-4.5,0-8.1,3.6-8.1,8.1s3.6,8.1,8.1,8.1H275c4.5,0,8.1-3.6,8.1-8.1S279.5,364.8,275,364.8z" fill="#fff"></path>
  <path d="M305.4,398.7H135.3c-4.5,0-8.1,3.6-8.1,8.1s3.6,8.1,8.1,8.1h170.1c4.5,0,8.1-3.6,8.1-8.1S309.9,398.7,305.4,398.7z" fill="#fff"></path>
  <path d="M335.8,432.5H135.3c-4.5,0-8.1,3.6-8.1,8.1s3.6,8.1,8.1,8.1h200.5c4.5,0,8.1-3.6,8.1-8.1S340.3,432.5,335.8,432.5z" fill="#fff"></path>
  <path d="M416.7,31.5h-99.5V8.8c0-4.5-3.6-8.1-8.1-8.1H195.8c-4.5,0-8.1,3.6-8.1,8.1v22.7H93.3C79.9,31.6,69,42.4,69,55.8v429.9  c0,13.4,10.9,24.3,24.3,24.3h323.4c13.4,0,24.3-10.9,24.3-24.3V55.8C441,42.4,430.1,31.6,416.7,31.5z M203.9,16.9h97.1v43.4h-97.1  V16.9z M424.8,485.7c0,4.5-3.6,8.1-8.1,8.1H93.3c-4.5,0-8.1-3.6-8.1-8.1V55.8c0-4.5,3.6-8.1,8.1-8.1h94.5v20.7  c0,4.5,3.6,8.1,8.1,8.1h113.3c4.5,0,8.1-3.6,8.1-8.1V47.7h99.5c4.5,0,8.1,3.6,8.1,8.1V485.7z" fill="#fff"></path>
</svg>
