<svg xmlns="http://www.w3.org/2000/svg" width="37.168" height="55.063" viewBox="0 0 37.168 55.063">
  <path id="man" d="M105.7,39.252a3.813,3.813,0,0,1-3.28-1.841.918.918,0,1,0-1.567.955,5.665,5.665,0,0,0,1.919,1.913l-.951,4.316-2.293-2.64A.919.919,0,1,0,98.186,40.7l-1.614,1.856-4.065-4.516a5.605,5.605,0,0,0,.615-2.153A12.288,12.288,0,0,0,108.858,24.1V16.519a.918.918,0,1,0-1.835,0V24.1a10.439,10.439,0,0,1-20.878,0V16.316a5.182,5.182,0,0,0,4.819-4.077,31.393,31.393,0,0,0,12.6,4.662.918.918,0,0,0,.255-1.818A29.575,29.575,0,0,1,90.8,9.919a.919.919,0,0,0-1.448.755,4.175,4.175,0,0,1-1.735,3.338,3.777,3.777,0,0,1-2.386.443.918.918,0,0,0-.92.812c-.01.089-.007-.213-.007,7.344a1.9,1.9,0,0,1-1.032-1.679V9.751a2.182,2.182,0,0,1,2.18-2.18.918.918,0,0,0,.852-.577,8.168,8.168,0,0,1,7.62-5.159h7.87a8.216,8.216,0,0,1,8.207,8.207V20.931a.918.918,0,1,0,1.835,0V10.042A10.054,10.054,0,0,0,101.8,0h-7.87a9.99,9.99,0,0,0-9.1,5.784,4.022,4.022,0,0,0-3.392,3.967v11.18a3.745,3.745,0,0,0,2.877,3.627,12.293,12.293,0,0,0,6.988,10.627v.242a3.828,3.828,0,0,1-3.835,3.825A9.467,9.467,0,0,0,78,48.725v5.421a.918.918,0,0,0,1.835,0V48.725a7.632,7.632,0,0,1,7.637-7.637,5.728,5.728,0,0,0,1.2-.127l1.281,5.811a.918.918,0,0,0,1.589.4l1.808-2.082-1.117,8.938a.918.918,0,0,0,1.821.228L95.344,43.93c.058.065.569.637.634.695a.917.917,0,0,0,1.293-.081l.55-.632,1.293,10.348a.918.918,0,0,0,1.821-.228l-1.117-8.938,1.808,2.082a.918.918,0,0,0,1.589-.4L104.5,40.96a5.763,5.763,0,0,0,1.2.128,7.633,7.633,0,0,1,7.637,7.637v5.421a.918.918,0,0,0,1.835,0V48.725a9.467,9.467,0,0,0-9.472-9.472ZM91.352,44.595,90.4,40.277a5.7,5.7,0,0,0,.981-.751L93.606,42Z" transform="translate(-78)" fill="#fff"/>
</svg>
