<svg id="salary" xmlns="http://www.w3.org/2000/svg" width="56.945" height="58.734" viewBox="0 0 56.945 58.734">
  <g id="Group_186" data-name="Group 186" transform="translate(0 0)">
    <path id="Path_184" data-name="Path 184" d="M64.107,42.038c-1.1-1.61-2.954-2-4.973-1.053l-1.07.471a17.694,17.694,0,0,0,1.057-11.392A27.483,27.483,0,0,0,52.2,17.541.86.86,0,1,0,50.928,18.7a25.8,25.8,0,0,1,6.514,11.733,15.426,15.426,0,0,1-2.019,12.183L44.714,47.334l.009-1.209a.84.84,0,0,0,0-.091,5.391,5.391,0,0,0-4.62-4.816l-.022,0-9.517-1.1C26.9,39.6,25.958,37.4,21,36.154a18.519,18.519,0,0,1,1.365-9.1c1.884-4.671,5.57-9.209,10.68-13.159,1.9,1.35,10.4,1.518,12.3-.224.974.74,1.9,1.5,2.77,2.274a.86.86,0,1,0,1.144-1.284c-.949-.846-1.971-1.68-3.042-2.487A3.062,3.062,0,0,0,45.2,9.122c2.693-4.085,3.477-6.759,2.395-8.16A1.5,1.5,0,0,0,45.528.644a1.38,1.38,0,0,1-1.65-.059,3.092,3.092,0,0,0-3.622,0,1.387,1.387,0,0,1-1.738,0,3.092,3.092,0,0,0-3.622,0A1.369,1.369,0,0,1,33.248.64a1.5,1.5,0,0,0-2.066.307c-1.058,1.361-.35,3.951,2.162,7.9a2.8,2.8,0,0,0-.437.292,5.808,5.808,0,0,0-5-1.891,6.3,6.3,0,0,1-4.28-1.012.86.86,0,0,0-.958,1.429,8.011,8.011,0,0,0,5.429,1.293,4.2,4.2,0,0,1,3.842,1.68q-.016.055-.029.111a14.763,14.763,0,0,0-2.728.3,8.078,8.078,0,0,0-5.6,3.584.86.86,0,1,0,1.485.869c1.569-2.681,5.4-3.009,6.918-3.029.007.019.014.038.021.056-5.427,4.186-9.205,8.855-11.234,13.885A20.417,20.417,0,0,0,19.237,35.8a17.9,17.9,0,0,0-2.5-.193v-.52a2.5,2.5,0,0,0-2.5-2.5H10.293a2.5,2.5,0,0,0-2.5,2.5V55.123a2.5,2.5,0,0,0,2.5,2.5h3.949a2.5,2.5,0,0,0,2.5-2.5v-.245l8.614,3.206a10.306,10.306,0,0,0,3.606.649H41.794a10.322,10.322,0,0,0,5.533-1.605C64.449,46.273,63.409,46.948,63.508,46.861a3.689,3.689,0,0,0,.6-4.823ZM43.736,12.651a18.645,18.645,0,0,1-9.351,0c-1.35-.341-.959-2.749.492-2.385a16.775,16.775,0,0,0,8.367,0C44.67,9.908,45.108,12.3,43.736,12.651ZM32.462,2.171l.02.01a3.052,3.052,0,0,0,3.356-.156c1.466-.959,1.625.579,3.549.579A2.988,2.988,0,0,0,41.2,2.025a1.388,1.388,0,0,1,1.739,0,3.068,3.068,0,0,0,3.37.154c.177.638-.224,2.54-2.774,6.338-1.267-.022-3.1,1.223-8.309.064-2.545-3.847-2.939-5.767-2.761-6.41ZM62.413,45.532,46.406,55.675a8.6,8.6,0,0,1-4.612,1.338H28.959a8.589,8.589,0,0,1-3.006-.541l-9.214-3.43V43.778a.86.86,0,1,0-1.72,0V55.123a.777.777,0,0,1-.776.776H10.293a.777.777,0,0,1-.776-.776V35.089a.777.777,0,0,1,.776-.776h3.949a.777.777,0,0,1,.776.776v4.668a.86.86,0,1,0,1.72,0V37.329c7.116.054,8.716,3.805,13.591,4.495l.022,0,9.516,1.1A3.675,3.675,0,0,1,43,46.16L42.99,47.8H34.115a.86.86,0,1,0,0,1.721h9.729a.891.891,0,0,0,.343-.072l15.65-6.89c1.125-.5,2.152-.572,2.847.451A1.965,1.965,0,0,1,62.413,45.532Z" transform="translate(-7.797 0.001)" fill="#fff"/>
    <text id="_" data-name="€" transform="translate(22.078 17.123)" fill="#fff" font-size="21" font-family="Raleway-SemiBold, Raleway" font-weight="600"><tspan x="0" y="20">€</tspan></text>
  </g>
</svg>
