<svg xmlns="http://www.w3.org/2000/svg" xmlns:xlink="http://www.w3.org/1999/xlink" width="52.425" height="52.488" viewBox="0 0 52.425 52.488">
  <defs>
    <clipPath id="clip-path">
      <rect width="52.425" height="52.488" fill="none"/>
    </clipPath>
  </defs>
  <g id="sketch" clip-path="url(#clip-path)">
    <g id="sketch-2" data-name="sketch">
      <g id="Group_188" data-name="Group 188" transform="translate(35.047 35.232)">
        <g id="Group_187" data-name="Group 187">
          <path id="Path_186" data-name="Path 186" d="M371.13,360.815a.862.862,0,0,0-.94.187l-9.421,9.421a.862.862,0,0,0,.61,1.472H370.8a.862.862,0,0,0,.862-.862v-9.421A.862.862,0,0,0,371.13,360.815Zm-7.67,9.356,6.478-6.478v6.478Z" transform="translate(-360.517 -360.749)" fill="#fff"/>
        </g>
      </g>
      <g id="Group_190" data-name="Group 190" transform="translate(0 0)">
        <g id="Group_189" data-name="Group 189">
          <path id="Path_187" data-name="Path 187" d="M51.95,25.508a.767.767,0,0,0-.839.167l-2.3,2.315V12.251a.771.771,0,0,0-.769-.773H42.125l2.146-2.156h0L46.34,7.245a2.364,2.364,0,0,0,0-3.333l-2.391-2.4a2.339,2.339,0,0,0-3.318,0L38.562,3.588,36.062,6.1l-5.355,5.379H6.821V3.832a.771.771,0,0,0-.769-.773A6.072,6.072,0,0,0,0,9.138V41.965a.778.778,0,0,0,.018.166,5.839,5.839,0,0,0,5.811,5.409H29.342l-4.428,4.448a.773.773,0,0,0,.544,1.319h26.2a.771.771,0,0,0,.769-.773V26.222A.773.773,0,0,0,51.95,25.508ZM41.719,2.6a.806.806,0,0,1,1.142,0l2.391,2.4a.814.814,0,0,1,0,1.147L43.727,7.684,40.194,4.135ZM39.106,5.228l3.533,3.549-1.412,1.418L37.694,6.646Zm11.78,29.679h-1.42a.773.773,0,0,0,0,1.546h1.42v2.329h-1.42a.773.773,0,0,0,0,1.546h1.42v2.329h-1.42a.773.773,0,0,0,0,1.546h1.42v2.329h-1.42a.773.773,0,0,0,0,1.546h1.42v3.686H27.315l7.772-7.807a.772.772,0,0,0-.11-1.184.767.767,0,0,0-.978.091L30.881,46H5.829a4.274,4.274,0,0,1-4.286-4.17q.007-.22.034-.436v0q.013-.1.031-.2l0-.023q.016-.091.036-.18l.011-.05q.018-.076.038-.151c.007-.027.015-.054.023-.081s.023-.078.035-.117.026-.077.039-.115.019-.054.029-.08c.019-.051.039-.1.059-.15l.018-.043c.026-.062.054-.123.083-.183l0-.008a4.533,4.533,0,0,1,3.149-2.473l.012,0c.064-.013.128-.024.193-.035l.032-.006c.058-.009.118-.016.177-.023l.05-.006c.057-.006.115-.01.172-.013l.055,0q.113-.006.228-.006a.771.771,0,0,0,.769-.773v-5.6a.769.769,0,1,0-1.539,0v4.88a6,6,0,0,0-3.456,1.68c-.1.1-.195.2-.287.3V9.138A4.535,4.535,0,0,1,5.282,4.671V27.964h0a.769.769,0,1,0,1.539,0h0V13.024H29.167L24.914,17.3a.775.775,0,0,0,0,1.093.767.767,0,0,0,1.088,0L31.569,12.8h0l5.036-5.058,3.533,3.549-.414.416h0L24.208,27.289l-3.533-3.549,3.058-3.072a.775.775,0,0,0,0-1.093.767.767,0,0,0-1.088,0l-3.6,3.618a.775.775,0,0,0-.054.061l-.016.022c-.011.015-.022.029-.031.044l-.016.027c-.008.014-.017.029-.024.044l-.014.03c-.007.015-.013.031-.019.046l-.007.016-1.5,4.266L16.34,30.657a.784.784,0,0,0-.031.118H13.75a.773.773,0,0,0,0,1.546H35.06a.773.773,0,0,0,0-1.546H19.771l4.693-1.664.011,0,.054-.023.021-.01c.018-.009.037-.019.054-.03l.017-.01c.019-.012.037-.025.054-.039l.013-.01a.774.774,0,0,0,.062-.056l15.834-15.9h6.682V29.536L36.261,40.592a.775.775,0,0,0,0,1.093.786.786,0,0,0,.058.053.767.767,0,0,0,1.03-.053h0l13.537-13.6ZM22.8,28.061l-2.2.782-1.469-1.475.778-2.214Z" transform="translate(0 -0.82)" fill="#fff"/>
        </g>
      </g>
    </g>
  </g>
</svg>
