<svg id="term" xmlns="http://www.w3.org/2000/svg" width="54.126" height="58.734" viewBox="0 0 54.126 58.734">
  <path id="Path_188" data-name="Path 188" d="M79.3,227.8a.865.865,0,0,0-.865.865v1.563a20.6,20.6,0,0,0,8.022,16.382l8.174,6.344a1.672,1.672,0,0,0,2.051,0l6.393-4.962a.865.865,0,0,0-1.061-1.367l-6.358,4.935-8.138-6.316a18.881,18.881,0,0,1-7.353-15.014v-1.563A.865.865,0,0,0,79.3,227.8Z" transform="translate(-71.738 -201.666)" fill="#fff"/>
  <path id="Path_189" data-name="Path 189" d="M219.4,460.369a1.186,1.186,0,1,0,1.186,1.186A1.186,1.186,0,0,0,219.4,460.369Z" transform="translate(-195.488 -407.557)" fill="#fff"/>
  <path id="Path_190" data-name="Path 190" d="M219.4,40.683a1.186,1.186,0,1,0,1.186,1.186A1.186,1.186,0,0,0,219.4,40.683Z" transform="translate(-195.488 -36.016)" fill="#fff"/>
  <path id="Path_191" data-name="Path 191" d="M384.224,102.791a1.186,1.186,0,1,0,1.186-1.186A1.186,1.186,0,0,0,384.224,102.791Z" transform="translate(-342.452 -89.949)" fill="#fff"/>
  <path id="Path_192" data-name="Path 192" d="M50.975,102.791a1.186,1.186,0,1,0,1.186-1.186A1.186,1.186,0,0,0,50.975,102.791Z" transform="translate(-47.432 -89.949)" fill="#fff"/>
  <path id="Path_193" data-name="Path 193" d="M72.5,53.061V32.071A2.977,2.977,0,0,0,71.235,26.4H61.224V15.89a1.67,1.67,0,0,0-1.482-1.662,39.668,39.668,0,0,1-9.133-2.08,26.216,26.216,0,0,1-4.982-2.4,3.061,3.061,0,0,0-3.249,0,26.215,26.215,0,0,1-4.982,2.4,39.674,39.674,0,0,1-9.133,2.08A1.67,1.67,0,0,0,26.78,15.89v7.015a.865.865,0,1,0,1.731,0V15.942a41.373,41.373,0,0,0,9.478-2.168,27.947,27.947,0,0,0,5.311-2.56,1.306,1.306,0,0,1,1.4,0,27.941,27.941,0,0,0,5.311,2.561,41.374,41.374,0,0,0,9.478,2.168V26.4H54.855a2.977,2.977,0,0,0-1.25,5.679V50.91l-6.467,5.019A5.142,5.142,0,0,1,44,57a5.071,5.071,0,0,1-3.137-1.075l-9.23-7.163a25.378,25.378,0,0,1-9.818-20.048V9.858a.4.4,0,0,1,.4-.4l2.806-.02c9.589-.07,14.257-3.317,16.186-5.246a17.592,17.592,0,0,0,1.624-1.869A1.458,1.458,0,0,1,44.01,1.73h0a1.446,1.446,0,0,1,1.167.588,16.955,16.955,0,0,0,1.613,1.869c1.553,1.553,6.24,5.174,16.186,5.246l2.806.02a.4.4,0,0,1,.4.4V22.869a.865.865,0,1,0,1.731,0V9.858A2.14,2.14,0,0,0,65.8,7.723L62.993,7.7C53.686,7.635,49.42,4.366,48.018,2.964A15.24,15.24,0,0,1,46.57,1.287,3.162,3.162,0,0,0,44.018,0H44.01a3.174,3.174,0,0,0-2.56,1.28,15.84,15.84,0,0,1-1.463,1.684c-1.742,1.742-6,4.674-14.975,4.739l-2.806.02a2.14,2.14,0,0,0-2.119,2.134v18.86A27.108,27.108,0,0,0,30.574,50.133L39.8,57.3a6.844,6.844,0,0,0,8.4,0l4.263-3.309a2.976,2.976,0,0,0,2.393,4.747h16.38A2.977,2.977,0,0,0,72.5,53.061ZM55.336,43.038a20.762,20.762,0,0,0,2.011-2.389A8.135,8.135,0,0,0,59.5,42.508a9.313,9.313,0,0,0-4.161,6.05Zm0-6.58a9.766,9.766,0,0,0,.976,2.65q-.458.684-.976,1.327Zm1.54,13.909c0-3.082,2.137-6.22,4.667-6.853a1.038,1.038,0,0,0,0-2.014c-2.53-.633-4.667-3.771-4.667-6.853v-2.3H69.215v2.3c0,3.082-2.137,6.22-4.667,6.853a1.038,1.038,0,0,0,0,2.014c2.53.633,4.667,3.771,4.667,6.853v2.411H56.876Zm13.891-1.753a9.319,9.319,0,0,0-4.172-6.107A9.319,9.319,0,0,0,70.767,36.4ZM54.855,28.128h16.38a1.247,1.247,0,0,1,0,2.494H54.855a1.247,1.247,0,1,1,0-2.494ZM71.235,57H54.855a1.247,1.247,0,0,1,0-2.494h16.38a1.247,1.247,0,0,1,0,2.494Z" transform="translate(-20.087 0)" fill="#fff"/>
  <path id="Path_194" data-name="Path 194" d="M127.246,171.9h.012a2.581,2.581,0,0,0,2.039-.989l10.938-13.881a2.6,2.6,0,1,0-4.078-3.213l-8.87,11.256-4.034-5.267a2.6,2.6,0,0,0-4.122,3.157l6.065,7.92A2.582,2.582,0,0,0,127.246,171.9Zm-6.911-10.63a.866.866,0,0,1,1.545-.412l4.711,6.151a.866.866,0,0,0,.681.339.882.882,0,0,0,.686-.33l9.559-12.131a.865.865,0,0,1,1.359,1.071l-10.938,13.881a.86.86,0,0,1-.68.33h-.006a.859.859,0,0,1-.681-.339l-6.065-7.92A.858.858,0,0,1,120.335,161.275Z" transform="translate(-107.296 -135.3)" fill="#fff"/>
</svg>
