<svg id="wall" xmlns="http://www.w3.org/2000/svg" width="50.726" height="50.727" viewBox="0 0 50.726 50.727">
  <g id="Group_192" data-name="Group 192" transform="translate(25.967 12.911)">
    <g id="Group_191" data-name="Group 191">
      <path id="Path_198" data-name="Path 198" d="M285.2,130.319H263.737a1.648,1.648,0,0,0-1.646,1.646v8.7a1.648,1.648,0,0,0,1.646,1.646H285.2a1.648,1.648,0,0,0,1.646-1.646v-8.7A1.648,1.648,0,0,0,285.2,130.319Zm.16,1.646v8.7a.16.16,0,0,1-.16.16c-22.584-.075-21.627.155-21.627-.16v-8.7a.16.16,0,0,1,.16-.16C286.322,131.88,285.365,131.65,285.365,131.965Z" transform="translate(-262.091 -130.319)" fill="#fff"/>
    </g>
  </g>
  <g id="Group_194" data-name="Group 194" transform="translate(12.983)">
    <g id="Group_193" data-name="Group 193">
      <path id="Path_199" data-name="Path 199" d="M154.159,0H132.691a1.648,1.648,0,0,0-1.646,1.646v8.7a1.648,1.648,0,0,0,1.646,1.646h21.467a1.648,1.648,0,0,0,1.646-1.646v-8.7A1.648,1.648,0,0,0,154.159,0Zm.16,10.346a.16.16,0,0,1-.16.16H132.691a.16.16,0,0,1-.16-.16v-8.7h0c0-.315-.957-.085,21.627-.16a.16.16,0,0,1,.16.16v8.7Z" transform="translate(-131.045)" fill="#fff"/>
    </g>
  </g>
  <g id="Group_196" data-name="Group 196" transform="translate(38.844)">
    <g id="Group_195" data-name="Group 195">
      <path id="Path_200" data-name="Path 200" d="M402.3,0h-8.591a1.648,1.648,0,0,0-1.646,1.646v8.7a1.648,1.648,0,0,0,1.646,1.646H402.3a1.648,1.648,0,0,0,1.646-1.646v-8.7A1.648,1.648,0,0,0,402.3,0Zm.16,10.346a.16.16,0,0,1-.16.16h-8.591a.16.16,0,0,1-.16-.16v-8.7a.16.16,0,0,1,.16-.16H402.3a.16.16,0,0,1,.16.16Z" transform="translate(-392.062)" fill="#fff"/>
    </g>
  </g>
  <g id="Group_198" data-name="Group 198" transform="translate(38.844 25.823)">
    <g id="Group_197" data-name="Group 197">
      <path id="Path_201" data-name="Path 201" d="M402.3,260.637h-8.591a1.648,1.648,0,0,0-1.646,1.646v8.7a1.648,1.648,0,0,0,1.646,1.646H402.3a1.648,1.648,0,0,0,1.646-1.646v-8.7A1.648,1.648,0,0,0,402.3,260.637Zm.16,10.346a.16.16,0,0,1-.16.16h-8.591a.16.16,0,0,1-.16-.16v-8.7a.16.16,0,0,1,.16-.16H402.3a.16.16,0,0,1,.16.16Z" transform="translate(-392.062 -260.637)" fill="#fff"/>
    </g>
  </g>
  <g id="Group_200" data-name="Group 200" transform="translate(0 25.823)">
    <g id="Group_199" data-name="Group 199">
      <path id="Path_202" data-name="Path 202" d="M10.237,260.637H1.646A1.648,1.648,0,0,0,0,262.283v8.7a1.648,1.648,0,0,0,1.646,1.646h8.591a1.648,1.648,0,0,0,1.646-1.646v-8.7A1.648,1.648,0,0,0,10.237,260.637Zm.16,10.346a.16.16,0,0,1-.16.16H1.646a.16.16,0,0,1-.16-.16v-8.7a.16.16,0,0,1,.16-.16h8.591a.16.16,0,0,1,.16.16Z" transform="translate(0 -260.637)" fill="#fff"/>
    </g>
  </g>
  <g id="Group_202" data-name="Group 202" transform="translate(0 12.911)">
    <g id="Group_201" data-name="Group 201">
      <path id="Path_203" data-name="Path 203" d="M23.114,130.319H1.646A1.648,1.648,0,0,0,0,131.965v8.7a1.648,1.648,0,0,0,1.646,1.646H23.114a1.648,1.648,0,0,0,1.646-1.646v-8.7A1.648,1.648,0,0,0,23.114,130.319Zm.16,10.346a.16.16,0,0,1-.16.16c-22.585-.075-21.627.155-21.627-.16v-8.7c0-.315-.957-.085,21.627-.16a.16.16,0,0,1,.16.16Z" transform="translate(0 -130.319)" fill="#fff"/>
    </g>
  </g>
  <g id="Group_204" data-name="Group 204" transform="translate(25.967 38.734)">
    <g id="Group_203" data-name="Group 203">
      <path id="Path_204" data-name="Path 204" d="M285.2,390.956H263.737a1.648,1.648,0,0,0-1.646,1.646v8.7a1.648,1.648,0,0,0,1.646,1.646H285.2a1.648,1.648,0,0,0,1.646-1.646v-8.7A1.648,1.648,0,0,0,285.2,390.956Zm.16,10.346a.16.16,0,0,1-.16.16c-22.584-.075-21.627.155-21.627-.16v-8.7c0-.315-.957-.085,21.627-.16a.16.16,0,0,1,.16.16Z" transform="translate(-262.091 -390.956)" fill="#fff"/>
    </g>
  </g>
  <g id="Group_206" data-name="Group 206" transform="translate(0 38.734)">
    <g id="Group_205" data-name="Group 205">
      <path id="Path_205" data-name="Path 205" d="M23.114,390.956H1.646A1.648,1.648,0,0,0,0,392.6v8.7a1.648,1.648,0,0,0,1.646,1.646H4.208a.743.743,0,1,0,0-1.486H1.646a.16.16,0,0,1-.16-.16v-8.7a.16.16,0,0,1,.16-.16c22.584.075,21.627-.155,21.627.16v8.7c0,.315.494.086-15.6.16a.743.743,0,1,0,0,1.486H23.114A1.648,1.648,0,0,0,24.76,401.3v-8.7A1.648,1.648,0,0,0,23.114,390.956Z" transform="translate(0 -390.956)" fill="#fff"/>
    </g>
  </g>
  <g id="Group_208" data-name="Group 208" transform="translate(12.983 25.823)">
    <g id="Group_207" data-name="Group 207">
      <path id="Path_206" data-name="Path 206" d="M154.159,260.637H151.33a.743.743,0,1,0,0,1.486h2.829a.16.16,0,0,1,.16.16v8.7c0,.315.957.085-21.627.16a.16.16,0,0,1-.16-.16v-8.7c0-.315-.469-.086,15.331-.16a.743.743,0,1,0,0-1.486H132.691a1.648,1.648,0,0,0-1.646,1.646v8.7a1.648,1.648,0,0,0,1.646,1.646h21.467a1.648,1.648,0,0,0,1.646-1.646v-8.7A1.648,1.648,0,0,0,154.159,260.637Z" transform="translate(-131.045 -260.637)" fill="#fff"/>
    </g>
  </g>
  <g id="Group_210" data-name="Group 210">
    <g id="Group_209" data-name="Group 209">
      <path id="Path_207" data-name="Path 207" d="M10.237,0H1.646A1.648,1.648,0,0,0,0,1.646V4.262a.743.743,0,0,0,1.486,0V1.646a.16.16,0,0,1,.16-.16h8.591a.16.16,0,0,1,.16.16v8.7a.16.16,0,0,1-.16.16H1.646a.16.16,0,0,1-.16-.16V7.73A.743.743,0,1,0,0,7.73v2.616a1.648,1.648,0,0,0,1.646,1.646h8.591a1.648,1.648,0,0,0,1.646-1.646v-8.7A1.648,1.648,0,0,0,10.237,0Z" fill="#fff"/>
    </g>
  </g>
</svg>
